<svg width="300" height="41" viewBox="0 0 300 41" fill="none" xmlns="http://www.w3.org/2000/svg">
<g clip-path="url(#clip0_1258_86)">
<path d="M81.3313 35.8586C80.4767 34.9651 80.0779 33.6248 80.0779 31.8379C80.0779 31.0933 80.1918 30.1403 80.4197 28.9192L84.5789 8.57746C84.8353 7.35636 85.8038 6.40331 86.9718 6.25439L87.3136 6.19483C89.2793 5.92678 90.903 7.74353 90.4757 9.76877L86.3736 29.7829C86.2596 30.2296 86.2026 30.7061 86.2026 31.2124C86.2026 31.8081 86.3451 32.2251 86.6015 32.4931C86.8578 32.7611 87.3136 32.8803 87.9404 32.8803C88.7665 32.8803 89.5356 32.5229 90.2478 31.7783C90.8461 31.1827 91.3019 30.4083 91.6152 29.5148C91.7292 29.1872 92.0425 28.9489 92.3844 28.9489C92.9826 28.9489 93.3814 29.5744 93.1535 30.1403C92.1565 32.7016 90.96 34.4886 89.5072 35.5012C87.8549 36.6627 86.2026 37.2286 84.5789 37.2286C83.2685 37.1988 82.1574 36.7521 81.3313 35.8586Z" fill="#FFB703"/>
<path d="M93.0111 35.4715C91.8431 34.3398 91.2449 32.523 91.2449 30.0808C91.2449 28.0258 91.6437 25.7623 92.4129 23.2903C93.182 20.8183 94.4355 18.674 96.1732 16.887C97.9109 15.1 100.104 14.1768 102.811 14.1768C105.944 14.1768 107.511 15.6063 107.511 18.4655C107.511 20.1333 107.055 21.682 106.144 23.0818C105.232 24.4816 104.007 25.6134 102.497 26.4473C100.988 27.2812 99.3638 27.7875 97.6545 27.9067C97.5975 28.8001 97.5691 29.3958 97.5691 29.6936C97.5691 31.153 97.797 32.1358 98.2812 32.6719C98.7655 33.208 99.5347 33.4463 100.646 33.4463C102.184 33.4463 103.494 33.0889 104.605 32.3145C105.688 31.57 106.913 30.4382 108.223 28.9193H109.676C106.514 34.4291 102.583 37.1989 97.9109 37.1989C95.8029 37.1989 94.1791 36.6033 93.0111 35.4715ZM101.016 24.6008C101.956 23.886 102.725 22.9925 103.324 21.8905C103.893 20.7886 104.207 19.627 104.207 18.4059C104.207 17.1848 103.836 16.5892 103.124 16.5892C102.099 16.5892 101.101 17.5124 100.104 19.3888C99.1359 21.2651 98.4237 23.4094 97.9964 25.7921C99.0504 25.7027 100.076 25.3155 101.016 24.6008Z" fill="#FFB703"/>
<path d="M119.818 35.7396C118.992 34.7865 118.593 33.5654 118.593 32.1358C118.593 31.5104 118.65 30.7956 118.821 30.0213C118.963 29.2469 119.106 28.4726 119.276 27.728C119.419 26.9834 119.533 26.5069 119.59 26.2984C119.818 25.256 120.017 24.2434 120.245 23.2308C120.444 22.2181 120.558 21.3842 120.558 20.7588C120.558 19.2399 120.046 18.4655 119.02 18.4655C118.279 18.4655 117.624 18.8527 117.054 19.5973C116.485 20.3418 116.029 21.3544 115.687 22.5755L113.266 34.5483C112.981 35.9183 111.813 36.9011 110.474 36.9011H110.132C108.309 36.9011 106.97 35.1439 107.34 33.2974L110.673 16.9168C110.958 15.5468 112.126 14.564 113.465 14.564H115.032C116.2 14.564 117.083 15.6957 116.827 16.887C118.251 15.2192 119.903 14.3853 121.84 14.3853C123.293 14.3853 124.433 14.8022 125.287 15.6361C126.142 16.4701 126.569 17.7209 126.569 19.4186C126.569 20.2823 126.455 21.2353 126.256 22.3075C126.056 23.3797 125.772 24.6603 125.401 26.1793C125.173 27.1025 124.974 27.996 124.775 28.8895C124.575 29.783 124.49 30.468 124.49 30.9743C124.49 31.57 124.632 32.0465 124.888 32.3741C125.145 32.7017 125.572 32.8506 126.199 32.8506C127.054 32.8506 127.737 32.523 128.25 31.8976C128.763 31.2721 129.276 30.2595 129.788 28.9193H131.583C130.529 32.1954 129.304 34.3993 127.937 35.5013C126.541 36.6331 125.116 37.1691 123.635 37.1691C121.897 37.1989 120.644 36.6926 119.818 35.7396Z" fill="#FFB703"/>
<path d="M130.871 35.4416C129.788 34.2801 129.247 32.4633 129.247 29.9913C129.247 27.7874 129.674 25.4643 130.5 23.0519C131.327 20.6395 132.608 18.5845 134.261 16.8869C135.941 15.219 137.907 14.3553 140.215 14.3553C141.383 14.3553 142.237 14.5638 142.807 14.9808C143.377 15.3977 143.662 15.9636 143.662 16.6188V16.7975L145.342 8.57746C145.599 7.35636 146.567 6.40331 147.735 6.25439L148.049 6.19483C150.014 5.92678 151.638 7.74353 151.211 9.76877L147.194 29.7829C147.08 30.2296 147.023 30.7061 147.023 31.2124C147.023 31.8081 147.166 32.2251 147.422 32.4931C147.678 32.7611 148.134 32.8803 148.761 32.8803C149.558 32.8803 150.242 32.5229 150.84 31.8081C151.41 31.0933 151.894 30.1403 152.236 28.9489H154.031C152.293 34.2801 149.416 36.9605 145.456 36.9605C144.288 36.9605 143.348 36.6329 142.608 35.9777C141.895 35.3225 141.44 34.3694 141.269 33.1185C140.528 34.3099 139.645 35.2927 138.591 36.067C137.537 36.8414 136.34 37.2286 134.944 37.2286C133.292 37.1988 131.953 36.6031 130.871 35.4416ZM139.787 31.8677C140.471 31.2124 140.955 30.2892 141.212 29.1574V28.9192L143.32 18.6738C143.063 17.6314 142.465 17.0954 141.582 17.0954C140.442 17.0954 139.417 17.7804 138.505 19.1802C137.594 20.5502 136.882 22.2478 136.369 24.1837C135.856 26.1493 135.6 27.847 135.6 29.3361C135.6 30.8253 135.799 31.7783 136.226 32.1953C136.625 32.6122 137.138 32.8207 137.736 32.8207C138.391 32.8505 139.075 32.5229 139.787 31.8677Z" fill="#FFB703"/>
<path d="M153.461 35.412C152.236 34.2802 151.609 32.4932 151.609 30.051C151.609 27.996 152.008 25.7325 152.777 23.2903C153.547 20.8183 154.8 18.7038 156.538 16.9168C158.276 15.1298 160.498 14.2065 163.204 14.2065C166.565 14.2065 168.389 16.2318 168.645 20.2227C169.272 20.0738 169.813 19.7164 170.326 19.1207C170.81 18.5251 171.266 17.8698 171.693 17.1253C172.32 17.1253 172.719 17.8401 172.434 18.4059C171.921 19.4185 171.437 20.2525 171.009 20.9077C170.411 21.831 169.613 22.5457 168.645 23.1116C168.474 25.9112 167.933 28.3832 166.993 30.4978C166.053 32.6124 164.856 34.2504 163.375 35.3822C161.893 36.5437 160.27 37.1096 158.446 37.1096C156.367 37.1096 154.686 36.5437 153.461 35.412ZM163.118 30.4084C164.03 28.6215 164.657 26.4175 164.999 23.7966C164.315 23.5286 163.973 22.8734 163.973 21.7714C163.973 20.6099 164.372 19.8355 165.169 19.4483C165.112 18.4953 164.97 17.8401 164.714 17.4529C164.457 17.0955 164.087 16.887 163.546 16.887C162.606 16.887 161.694 17.6018 160.839 19.0016C159.985 20.4312 159.301 22.1288 158.76 24.1242C158.219 26.1495 157.962 27.9067 157.962 29.4256C157.962 30.8552 158.105 31.8082 158.418 32.3145C158.731 32.7911 159.301 33.0591 160.127 33.0591C161.238 33.0889 162.207 32.1954 163.118 30.4084Z" fill="#FFB703"/>
<path d="M204.482 35.7393C203.656 34.7863 203.257 33.5652 203.257 32.1356C203.257 31.5102 203.314 30.7954 203.485 30.021C203.627 29.2467 203.77 28.4723 203.941 27.7277C204.083 26.9832 204.197 26.5066 204.254 26.2982C204.482 25.2558 204.681 24.2431 204.909 23.2305C205.109 22.2179 205.194 21.384 205.194 20.7585C205.194 19.2396 204.681 18.4653 203.656 18.4653C202.915 18.4653 202.26 18.8524 201.69 19.597C201.121 20.3416 200.665 21.3542 200.323 22.5753L197.901 34.548C197.617 35.918 196.449 36.9009 195.11 36.9009H194.768C192.945 36.9009 191.606 35.1437 191.976 33.2971L194.369 21.4733C194.455 21.1159 194.511 20.7585 194.511 20.3416C194.511 19.0311 194.084 18.3759 193.23 18.3759C192.432 18.3759 191.748 18.7631 191.15 19.5077C190.552 20.2522 190.096 21.2648 189.754 22.5157L187.333 34.4884C187.048 35.8585 185.88 36.8413 184.541 36.8413H184.199C182.376 36.8413 181.037 35.0841 181.407 33.2376L184.74 16.857C185.025 15.487 186.193 14.5041 187.532 14.5041H189.099C190.267 14.5041 191.15 15.6359 190.894 16.8272C192.346 15.1296 194.084 14.2957 196.107 14.2957C198.614 14.2957 200.067 15.5763 200.494 18.1376C202.061 15.6061 204.055 14.3254 206.448 14.3254C207.901 14.3254 209.04 14.7424 209.895 15.5763C210.749 16.4102 211.177 17.6611 211.177 19.3587C211.177 20.2224 211.063 21.1755 210.892 22.2477C210.692 23.3199 210.407 24.6005 210.037 26.1195C209.809 27.0427 209.61 27.9362 209.41 28.8297C209.211 29.7232 209.125 30.4082 209.125 30.9145C209.125 31.5102 209.239 31.9867 209.496 32.3143C209.752 32.6419 210.18 32.7908 210.835 32.7908C211.689 32.7908 212.373 32.4632 212.886 31.8378C213.399 31.2123 213.911 30.1997 214.424 28.8595H216.219C215.165 32.1356 213.94 34.3395 212.572 35.4415C211.177 36.5732 209.752 37.1093 208.271 37.1093C206.562 37.1987 205.28 36.6924 204.482 35.7393Z" fill="#FFB703"/>
<path d="M215.364 35.8586C214.51 34.9651 214.111 33.6249 214.111 31.8379C214.111 31.0933 214.225 30.1403 214.453 28.9192L216.874 16.9465C217.159 15.5765 218.327 14.5936 219.666 14.5936H220.008C221.831 14.5936 223.17 16.3508 222.799 18.1974L220.463 29.7829C220.378 30.2296 220.321 30.6466 220.321 31.0338C220.321 32.2549 220.748 32.8505 221.603 32.8505C222.401 32.8505 223.084 32.4931 223.654 31.8081C224.224 31.1231 224.68 30.1403 225.021 28.9192L227.443 16.9465C227.728 15.5765 228.896 14.5936 230.235 14.5936H230.576C232.4 14.5936 233.738 16.3508 233.368 18.1974L231.032 29.7829C230.918 30.2296 230.861 30.7062 230.861 31.2125C230.861 31.8081 231.004 32.2251 231.26 32.4931C231.516 32.7612 231.972 32.8803 232.599 32.8803C233.397 32.8803 234.08 32.5229 234.679 31.8081C235.248 31.0933 235.733 30.1403 236.074 28.949H237.869C236.815 32.1655 235.505 34.3397 233.966 35.5012C232.4 36.6627 230.861 37.2286 229.294 37.2286C228.07 37.2286 227.101 36.8712 226.36 36.1564C225.648 35.4416 225.192 34.3992 225.05 32.9994C224.081 34.6375 223.056 35.7693 222.002 36.3649C220.919 36.9606 219.837 37.2584 218.726 37.2584C217.301 37.1988 216.219 36.7521 215.364 35.8586ZM230.348 3.42505C231.516 3.42505 232.229 4.76528 231.602 5.80768L227.899 11.8834C226.417 11.8834 225.449 10.2751 226.075 8.87532L227.785 5.12267C228.24 4.08027 229.237 3.42505 230.348 3.42505Z" fill="#FFB703"/>
<path d="M237.442 36.3649C236.502 35.8288 235.818 35.114 235.334 34.2205C234.878 33.3568 234.65 32.4336 234.65 31.4805C234.65 30.4977 234.878 29.634 235.305 28.9192C235.761 28.2044 236.274 27.6683 236.901 27.3407C238.012 25.2559 238.98 23.1413 239.806 21.0267C240.433 19.4185 241.031 17.6911 241.601 15.9041C241.943 14.8319 242.854 14.0278 243.937 13.8788L245.39 13.6704C247.042 13.4321 248.523 14.7425 248.609 16.47C248.751 19.3589 248.951 22.3967 249.207 25.6133C249.35 27.4003 249.435 28.7107 249.435 29.5149C249.435 30.1999 249.378 30.7657 249.264 31.2125C250.603 30.4083 251.629 29.6638 252.341 28.9788H254.135C252.312 31.1827 250.119 33.0292 247.612 34.5779C246.786 35.5012 245.76 36.1862 244.564 36.6032C243.339 37.0201 242.142 37.2584 240.917 37.2584C239.521 37.1988 238.382 36.901 237.442 36.3649ZM242.171 32.6718C242.883 32.0166 243.253 30.9742 243.253 29.5149C243.253 28.6214 243.168 27.3705 242.997 25.7622C242.712 22.367 242.513 20.1035 242.427 18.9121C241.743 21.265 240.575 24.0944 238.952 27.3705C239.607 27.7279 239.949 28.264 239.949 28.949C239.949 29.5149 239.778 30.0212 239.408 30.4679C239.037 30.9146 238.61 31.1529 238.069 31.1529C237.47 31.1529 237.072 30.9742 236.929 30.5573C236.929 31.6294 237.129 32.4336 237.556 32.9399C237.955 33.4462 238.638 33.6845 239.55 33.6845C240.576 33.6547 241.459 33.3271 242.171 32.6718Z" fill="#FFB703"/>
<path d="M253.281 35.8587C252.426 34.9652 252.027 33.625 252.027 31.838C252.027 31.0935 252.141 30.1404 252.369 28.9193L254.791 16.9466C255.075 15.5766 256.243 14.5938 257.582 14.5938H257.924C259.747 14.5938 261.086 16.3509 260.716 18.1975L258.38 29.783C258.266 30.2298 258.209 30.7063 258.209 31.2126C258.209 31.8083 258.352 32.2252 258.608 32.4933C258.864 32.7613 259.32 32.8804 259.947 32.8804C260.773 32.8804 261.542 32.523 262.254 31.7785C262.966 31.0637 263.479 30.1106 263.793 28.9491H265.587C264.533 32.1656 263.166 34.3398 261.514 35.5013C259.861 36.6629 258.238 37.2287 256.585 37.2287C255.218 37.1989 254.107 36.7522 253.281 35.8587ZM257.098 11.1389C256.471 10.4837 256.158 9.70936 256.13 8.81588C256.101 7.83304 256.443 6.85021 257.098 6.13542C257.753 5.45041 258.551 5.09302 259.491 5.09302C260.431 5.09302 261.229 5.45041 261.912 6.13542C262.568 6.85021 262.91 7.68413 262.91 8.66696C262.91 9.6498 262.568 10.4837 261.912 11.1687C261.229 11.8537 260.289 12.2409 259.349 12.1813C258.465 12.1218 257.725 11.7942 257.098 11.1389Z" fill="#FFB703"/>
<path d="M264.961 35.4715C263.793 34.3398 263.194 32.523 263.194 30.0808C263.194 28.0258 263.593 25.7623 264.362 23.2903C265.132 20.8183 266.385 18.674 268.123 16.887C269.832 15.1 272.026 14.1768 274.675 14.1768C276.384 14.1768 277.609 14.5639 278.321 15.3383C279.062 16.1126 279.404 17.0955 279.404 18.2868C279.404 19.3292 279.176 20.1333 278.749 20.6992C278.321 21.2651 277.78 21.5629 277.125 21.5629C277.125 21.5629 277.125 21.5629 277.096 21.5629C276.327 21.5629 275.757 20.7588 275.928 19.9546C276.071 19.3888 276.128 18.8825 276.128 18.3761C276.128 17.8103 276.014 17.3635 275.814 17.0359C275.615 16.7083 275.302 16.5594 274.931 16.5594C274.077 16.5594 273.222 17.304 272.367 18.7633C271.513 20.2227 270.801 22.0097 270.259 24.0647C269.718 26.1495 269.462 28.0258 269.462 29.6936C269.462 31.153 269.69 32.1358 270.174 32.6719C270.658 33.208 271.427 33.4463 272.538 33.4463C274.077 33.4463 275.387 33.0889 276.498 32.3145C277.552 31.5997 278.692 30.5573 279.917 29.1278C280.03 28.9788 280.201 28.9193 280.401 28.9193C280.914 28.9193 281.227 29.5149 280.942 29.9617C277.894 34.7865 274.191 37.1691 269.832 37.1691C267.752 37.1989 266.129 36.6033 264.961 35.4715Z" fill="#FFB703"/>
<path d="M281.227 35.4417C280.144 34.2802 279.603 32.4635 279.603 29.9915C279.603 27.7875 280.03 25.4645 280.857 23.0521C281.683 20.6397 282.965 18.5846 284.617 16.887C286.298 15.2192 288.263 14.3555 290.571 14.3555C291.739 14.3555 292.593 14.5639 293.192 14.9809C293.761 15.3979 294.046 15.9637 294.046 16.619V16.9466C294.331 15.5766 295.471 14.5639 296.838 14.5639H297.151C298.974 14.5639 300.313 16.3211 299.943 18.1677L297.607 29.7532C297.493 30.2 297.436 30.6765 297.436 31.1828C297.436 31.7785 297.579 32.1954 297.835 32.4635C298.091 32.7315 298.547 32.8506 299.174 32.8506C299.573 32.8506 299.858 33.2974 299.715 33.6846C299.231 34.8163 298.775 35.6502 298.319 36.1863C297.75 36.8713 296.923 37.1989 295.841 37.1989C294.673 37.1989 293.733 36.8415 292.992 36.097C292.28 35.3822 291.824 34.3398 291.653 33.0293C289.916 35.7991 287.779 37.1692 285.301 37.1692C283.677 37.1989 282.309 36.6033 281.227 35.4417ZM290.2 31.8082C290.884 31.1232 291.368 30.1404 291.625 28.9193L293.676 18.8229C293.676 18.4357 293.533 18.0485 293.249 17.6912C292.964 17.3338 292.508 17.1253 291.91 17.1253C290.77 17.1253 289.745 17.8103 288.833 19.2101C287.921 20.5801 287.209 22.2777 286.696 24.2136C286.184 26.1793 285.927 27.8769 285.927 29.366C285.927 30.8552 286.127 31.8082 286.554 32.2252C286.953 32.6422 287.466 32.8506 288.064 32.8506C288.776 32.8506 289.488 32.4932 290.2 31.8082Z" fill="#FFB703"/>
<path d="M0 4.40796V37.9733C0 39.6709 1.62378 40.8622 3.16209 40.2368C7.74855 38.3902 16.9215 36.0969 28.2309 40.4155C29.7408 41.0111 31.3645 39.8198 31.3645 38.1222V4.40796C31.3645 3.33578 30.6808 2.38273 29.7123 2.0849C25.6101 0.774453 14.4431 -1.87622 1.65226 2.0849C0.683696 2.38273 0 3.33578 0 4.40796Z" fill="#FFB703"/>
<path d="M35.2103 4.40796V37.9733C35.2103 39.6709 36.8341 40.8622 38.3724 40.2368C42.9589 38.3902 52.1318 36.0969 63.4413 40.4155C64.9511 41.0111 66.5749 39.8198 66.5749 38.1222V4.40796C66.5749 3.33578 65.8912 2.38273 64.9226 2.0849C60.8204 0.774453 49.6534 -1.87622 36.8626 2.0849C35.894 2.38273 35.2103 3.33578 35.2103 4.40796Z" fill="#FFB703"/>
<path d="M20.5963 25.7624C19.1719 26.507 17.6336 26.2687 17.1493 25.2561C16.6651 24.2435 17.4057 22.8139 18.8301 22.0693C19.3713 21.8013 19.9126 21.6524 20.3969 21.6524C20.5393 21.6524 20.6818 21.5035 20.6818 21.3546V16.2915C20.6818 16.1723 20.5678 16.0532 20.4539 16.0532H12.9332C12.8193 16.0532 12.7053 16.1723 12.7053 16.2915V22.8735C12.7053 22.8735 12.7053 22.9033 12.7338 22.9033C13.2181 23.9159 12.4774 25.3455 11.0531 26.09C9.62868 26.8346 8.09037 26.5963 7.60609 25.5837C7.1218 24.5711 7.86247 23.1415 9.28684 22.397C9.79961 22.1289 10.3409 21.98 10.8252 21.98C10.9676 21.98 11.11 21.8311 11.11 21.6822V13.3727C11.11 12.9856 11.4234 12.658 11.7937 12.658H21.6788C22.0492 12.658 22.3625 12.9856 22.3625 13.3727V22.5757C22.3625 22.6054 22.3625 22.665 22.391 22.6948C22.6759 23.7074 21.9352 25.0476 20.5963 25.7624Z" fill="#023047"/>
<path d="M54.3253 24.5412C52.9009 25.2858 51.3626 25.0475 50.8783 24.0349C50.3941 23.0223 51.1347 21.5927 52.5591 20.8482C53.1004 20.5801 53.6416 20.4312 54.1259 20.4312C54.2683 20.4312 54.4108 20.2823 54.4108 20.1334V15.0703C54.4108 14.9511 54.2968 14.832 54.1829 14.832H46.6622C46.5483 14.832 46.4343 14.9511 46.4343 15.0703V21.6523C46.4343 21.6523 46.4343 21.6821 46.4628 21.6821C46.9471 22.6947 46.2064 24.1243 44.7821 24.8688C43.3577 25.6134 41.8194 25.3752 41.3351 24.3625C40.8508 23.3499 41.5915 21.9203 43.0158 21.1758C43.5286 20.9077 44.0699 20.7588 44.5542 20.7588C44.6966 20.7588 44.839 20.6099 44.839 20.461V12.1516C44.839 11.7644 45.1524 11.4368 45.5227 11.4368H55.4078C55.7782 11.4368 56.0915 11.7644 56.0915 12.1516V21.3545C56.0915 21.3842 56.0915 21.4438 56.12 21.4736C56.4334 22.4862 55.6927 23.8264 54.3253 24.5412Z" fill="#023047"/>
</g>
<defs>
<clipPath id="clip0_1258_86">
<rect width="300" height="40.5941" fill="white"/>
</clipPath>
</defs>
</svg>
